# xmcd
#
# Track frame offsets:
#	150
#	13653
#	30702
#	40834
#	50045
#	62455
#	75687
#	83583
#	98688
#	112310
#	122337
#	131242
#	139880
#	152805
#	165897
#	170721
#	173169
#	176523
#	186868
#
# Disc length: 2705 seconds
#
# Revision: 1
# Processed by: cddbd v1.5.2PL0 Copyright (c) Steve Scherf et al.
# Submitted via: audiograbber 1.83.01
#
DISCID=f80a8f13
DTITLE=Cristal Gayle - Talking In Your Sleep
DYEAR=2007
DGENRE=Country
TTITLE0=Green Door
TTITLE1=Half The Way
TTITLE2=Wrong Road Again
TTITLE3=Somebody Loves You
TTITLE4=Why Have You Left The One You Left For Me
TTITLE5=Talking In Your Sleep
TTITLE6=Blue Moon Of Kentucky
TTITLE7=Ready For The Times To Get Better
TTITLE8=Midnight In The Desert
TTITLE9=Skylark
TTITLE10=Nearness Of You
TTITLE11=Don´t Come Home A Drinking
TTITLE12=That´s What I Like About The South 
TTITLE13=Don´t It Make My Brown Eyes Blue
TTITLE14=I Saw The Light
TTITLE15=Somebody Touched Me
TTITLE16=I´ll Fly Away
TTITLE17=Jesus On The Mainline
TTITLE18=When I Dream
EXTD=
EXTT0=
EXTT1=
EXTT2=
EXTT3=
EXTT4=
EXTT5=
EXTT6=
EXTT7=
EXTT8=
EXTT9=
EXTT10=
EXTT11=
EXTT12=
EXTT13=
EXTT14=
EXTT15=
EXTT16=
EXTT17=
EXTT18=
PLAYORDER=
